<svg width="15" height="22" viewBox="0 0 15 22" fill="none" xmlns="http://www.w3.org/2000/svg">
<path d="M10.0999 6.98473C10.0993 6.44613 9.93897 5.91981 9.63928 5.47229C9.33959 5.02477 8.91395 4.67614 8.41617 4.47046C7.91838 4.26479 7.3708 4.21131 6.84263 4.31677C6.31445 4.42223 5.8294 4.68191 5.44878 5.06298C5.06816 5.44406 4.80905 5.92941 4.70421 6.45771C4.59936 6.98601 4.65349 7.53353 4.85975 8.03107C5.06601 8.52861 5.41514 8.95383 5.86301 9.253C6.31089 9.55216 6.8374 9.71184 7.376 9.71184C8.09872 9.71099 8.79154 9.42329 9.30228 8.91195C9.81302 8.40061 10.0999 7.70745 10.0999 6.98473ZM5.45098 6.98473C5.45098 6.604 5.56388 6.23182 5.7754 5.91525C5.98693 5.59868 6.28757 5.35195 6.63933 5.20625C6.99108 5.06055 7.37813 5.02242 7.75155 5.0967C8.12497 5.17098 8.46797 5.35432 8.73719 5.62354C9.00641 5.89276 9.18975 6.23576 9.26403 6.60918C9.3383 6.98259 9.30018 7.36965 9.15448 7.7214C9.00878 8.07315 8.76205 8.3738 8.44548 8.58532C8.12891 8.79685 7.75673 8.90975 7.376 8.90975C6.86545 8.90975 6.37582 8.70693 6.0148 8.34592C5.65379 7.98491 5.45098 7.49528 5.45098 6.98473Z" fill="#3C3F47"/>
<path d="M10.0325 15.798C11.9575 13.1029 14.3606 9.27537 14.3606 6.9846C14.3606 5.13217 13.6247 3.35561 12.3148 2.04574C11.005 0.735876 9.22839 0 7.37596 0C5.52353 0 3.74697 0.735876 2.4371 2.04574C1.12723 3.35561 0.391357 5.13217 0.391357 6.9846C0.391357 9.27537 2.79442 13.0997 4.71944 15.798C2.06933 16.2375 0.391357 17.2899 0.391357 18.554C0.391357 20.2448 3.39438 21.5217 7.37596 21.5217C11.3575 21.5217 14.3606 20.2383 14.3606 18.554C14.3606 17.2866 12.6826 16.2375 10.0325 15.798ZM7.37596 0.814924C9.01292 0.816613 10.5825 1.46677 11.7413 2.62307C12.9 3.77938 13.5534 5.34764 13.5585 6.9846C13.5585 9.99725 8.6593 16.3594 7.37596 17.9893C6.09262 16.3594 1.19345 9.99725 1.19345 6.98781C1.19769 5.3503 1.85073 3.78121 3.00953 2.62421C4.16834 1.46721 5.73844 0.816616 7.37596 0.814924ZM7.37596 20.7068C3.73126 20.7068 1.19345 19.5646 1.19345 18.5411C1.19345 17.816 2.61154 16.876 5.24882 16.5166C6.21132 17.8385 6.97812 18.7625 7.06475 18.8716C7.10237 18.9173 7.14965 18.9541 7.20318 18.9793C7.25671 19.0046 7.31516 19.0177 7.37436 19.0177C7.43355 19.0177 7.49201 19.0046 7.54554 18.9793C7.59907 18.9541 7.64634 18.9173 7.68396 18.8716C7.7738 18.7625 8.53097 17.8385 9.4999 16.5166C12.1404 16.8888 13.5585 17.8192 13.5585 18.554C13.5585 19.5774 11.0207 20.7068 7.37596 20.7068Z" fill="#3C3F47"/>
</svg>
