<svg width="18" height="18" viewBox="0 0 18 18" fill="none" xmlns="http://www.w3.org/2000/svg">
<path d="M10.9022 12.4623C11.1842 12.1785 11.1842 12.1785 11.5228 11.838C11.837 11.5221 12.0841 11.2739 12.2416 11.1161C13.0266 10.3299 14.0752 10.3298 14.8616 11.1173C15.5926 11.8493 16.3331 12.5971 17.0865 13.3641C17.8822 14.1744 17.8771 15.2348 17.0782 16.0495C16.9202 16.2107 16.6611 16.4025 16.3091 16.6315C16.2306 16.6826 16.148 16.7351 16.0619 16.7888C15.8301 16.9333 15.5828 17.0802 15.3355 17.2221C15.1872 17.3073 15.0715 17.3721 15.0144 17.4032C14.1099 17.9305 12.6406 18.0446 11.6982 17.6767C11.6036 17.6476 11.4345 17.5895 11.2014 17.5C10.8177 17.3527 10.3913 17.169 9.93292 16.9465C8.62547 16.3118 7.31852 15.4917 6.09728 14.465C5.60686 14.0527 5.13935 13.6139 4.69807 13.1477C4.34205 12.7716 4.00367 12.3797 3.68247 11.9737C2.62492 10.637 1.79452 9.20653 1.16481 7.77555C0.944067 7.27392 0.763971 6.80739 0.621338 6.38755C0.534746 6.13267 0.479368 5.94784 0.464037 5.88308C0.109336 4.89603 0.310404 3.41026 0.901726 2.53593C0.938677 2.47814 1.00345 2.37899 1.08871 2.2521C1.23077 2.04067 1.37843 1.8291 1.52472 1.63061C1.58819 1.54449 1.65019 1.46251 1.71045 1.38524C1.86502 1.18705 2.00534 1.02323 2.1313 0.897988C2.91757 0.116573 3.96429 0.117664 4.75199 0.899303C5.07306 1.21771 6.46 2.62022 6.96173 3.13159C7.77369 3.9598 7.77554 5.00665 6.96461 5.83017C6.84297 5.95373 6.57872 6.2213 6.21421 6.59007C5.90462 6.90324 5.90462 6.90324 5.64737 7.16338C5.51463 7.2976 5.46751 7.34525 5.43698 7.37612C5.4886 7.50862 5.57419 7.71338 5.69086 7.96826C5.91669 8.46162 6.17547 8.95473 6.46175 9.41248C6.7737 9.9113 7.09916 10.3363 7.43152 10.6637C7.73845 10.9661 8.10457 11.2588 8.51736 11.5389C8.99911 11.8657 9.51786 12.1582 10.0368 12.4111C10.3057 12.5422 10.5214 12.6375 10.6684 12.6977C10.7018 12.664 10.752 12.6135 10.9022 12.4623ZM5.41492 7.31844C5.41558 7.3202 5.41625 7.32198 5.41693 7.32378C5.41639 7.32216 5.41568 7.32032 5.41492 7.31844ZM16.4368 14.0157C15.6852 13.2505 14.9465 12.5045 14.2173 11.7743C13.7877 11.3441 13.3142 11.3442 12.886 11.7731C12.729 11.9304 12.4822 12.1782 12.1703 12.4918C11.83 12.834 11.83 12.834 11.5482 13.1177C11.3227 13.3446 11.3227 13.3446 11.2663 13.4014C11.0422 13.6271 10.6677 13.6995 10.3887 13.5806C10.2348 13.5203 9.97313 13.407 9.63915 13.2443C9.08374 12.9735 8.52814 12.6603 8.00715 12.3069C7.55105 11.9974 7.14225 11.6706 6.79251 11.3261C6.4032 10.9425 6.03537 10.4622 5.68795 9.90664C5.37841 9.41167 5.10149 8.88401 4.86007 8.3566C4.71496 8.03957 4.61321 7.79131 4.5621 7.65434C4.44597 7.36227 4.52438 6.99032 4.74271 6.76957C4.79414 6.71758 4.79414 6.71758 4.99989 6.50953C5.25709 6.24944 5.25709 6.24944 5.5657 5.93725C5.93058 5.56811 6.19463 5.30075 6.3157 5.17777C6.77106 4.71533 6.77024 4.25057 6.31158 3.78273C5.81275 3.27432 4.42812 1.87413 4.11075 1.5594C3.67881 1.13078 3.203 1.13029 2.77322 1.55742C2.67925 1.65084 2.56217 1.78754 2.42938 1.95781C2.37452 2.02814 2.31754 2.10348 2.25886 2.18311C2.12138 2.36965 1.98112 2.5706 1.84601 2.7717C1.76496 2.89232 1.70396 2.98569 1.66405 3.04783C1.2305 3.68908 1.07155 4.86365 1.33639 5.60579C1.35836 5.68882 1.4076 5.85319 1.4871 6.0872C1.62129 6.48217 1.79168 6.92357 2.00121 7.3997C2.60084 8.76234 3.39212 10.1255 4.39743 11.3961C4.70196 11.781 5.02254 12.1523 5.35955 12.5083C5.77635 12.9486 6.21846 13.3636 6.6827 13.7539C7.84217 14.7287 9.08597 15.5092 10.3293 16.1127C10.7636 16.3236 11.1663 16.497 11.5265 16.6353C11.7398 16.7172 11.8895 16.7686 11.996 16.8026C12.712 17.0812 13.8923 16.9895 14.5671 16.5963C14.6295 16.562 14.7404 16.4999 14.8834 16.4178C15.1217 16.281 15.3599 16.1396 15.5813 16.0015C15.6626 15.9509 15.7402 15.9015 15.8136 15.8538C16.1121 15.6595 16.3305 15.4978 16.428 15.3984C16.8747 14.9429 16.877 14.464 16.4368 14.0157Z" fill="#3C3F47"/>
</svg>
