<svg width="16" height="16" viewBox="0 0 16 16" fill="none" xmlns="http://www.w3.org/2000/svg">
<path d="M9.39682 10.4231C9.6022 10.2186 9.6022 10.2186 9.84882 9.97314C10.0776 9.74547 10.2576 9.56661 10.3723 9.4529C10.944 8.88624 11.7077 8.88618 12.2805 9.45372C12.8129 9.98128 13.3522 10.5203 13.9009 11.0731C14.4804 11.6571 14.4767 12.4213 13.8949 13.0085C13.7797 13.1247 13.5911 13.2629 13.3347 13.428C13.2775 13.4648 13.2174 13.5026 13.1547 13.5413C12.9859 13.6455 12.8057 13.7513 12.6257 13.8536C12.5176 13.915 12.4333 13.9617 12.3918 13.9842C11.733 14.3642 10.6629 14.4464 9.97658 14.1812C9.90768 14.1602 9.78449 14.1184 9.61474 14.0539C9.33526 13.9477 9.02474 13.8154 8.69088 13.655C7.73866 13.1976 6.7868 12.6065 5.89736 11.8665C5.54018 11.5694 5.19969 11.2531 4.87831 10.9171C4.61902 10.646 4.37257 10.3636 4.13864 10.071C3.36842 9.10762 2.76363 8.07662 2.30501 7.04528C2.14424 6.68374 2.01307 6.34751 1.90919 6.04492C1.84613 5.86122 1.80579 5.72801 1.79463 5.68133C1.5363 4.96995 1.68274 3.89912 2.1134 3.26898C2.14031 3.22732 2.18748 3.15587 2.24958 3.06441C2.35304 2.91203 2.46059 2.75955 2.56713 2.61649C2.61335 2.55442 2.65851 2.49534 2.7024 2.43965C2.81498 2.29681 2.91717 2.17874 3.00891 2.08848C3.58155 1.5253 4.34389 1.52608 4.91758 2.08943C5.15142 2.3189 6.16153 3.32973 6.52695 3.69828C7.1183 4.29519 7.11965 5.04967 6.52904 5.6432C6.44045 5.73226 6.24799 5.9251 5.98252 6.19088C5.75704 6.41658 5.75704 6.41658 5.56969 6.60408C5.47301 6.70081 5.43869 6.73515 5.41646 6.7574C5.45405 6.8529 5.51639 7.00047 5.60136 7.18417C5.76584 7.53974 5.95431 7.89514 6.1628 8.22505C6.39 8.58456 6.62703 8.89086 6.86909 9.12686C7.09263 9.3448 7.35928 9.55574 7.65992 9.75758C8.01078 9.99313 8.38859 10.2039 8.76655 10.3862C8.96237 10.4807 9.1195 10.5494 9.22653 10.5927C9.25087 10.5685 9.2874 10.5321 9.39682 10.4231ZM5.40039 6.71583C5.40087 6.7171 5.40136 6.71838 5.40185 6.71968C5.40146 6.71851 5.40094 6.71718 5.40039 6.71583ZM13.4277 11.5427C12.8803 10.9912 12.3423 10.4535 11.8113 9.92728C11.4984 9.61724 11.1535 9.61727 10.8416 9.92641C10.7273 10.0397 10.5475 10.2184 10.3204 10.4444C10.0726 10.691 10.0726 10.691 9.86727 10.8955C9.70307 11.059 9.70307 11.059 9.66202 11.0999C9.49875 11.2626 9.226 11.3148 9.02285 11.2291C8.91073 11.1856 8.72017 11.104 8.47692 10.9867C8.07242 10.7916 7.66777 10.5658 7.28833 10.3111C6.95615 10.0881 6.65842 9.85254 6.4037 9.6042C6.12016 9.32776 5.85227 8.98158 5.59924 8.5812C5.3738 8.22447 5.17212 7.84417 4.99629 7.46405C4.8906 7.23557 4.8165 7.05663 4.77928 6.95792C4.6947 6.74742 4.75181 6.47935 4.91081 6.32025C4.94827 6.28278 4.94827 6.28278 5.09812 6.13283C5.28544 5.94538 5.28544 5.94538 5.51021 5.72038C5.77595 5.45433 5.96826 5.26164 6.05643 5.173C6.38807 4.83972 6.38748 4.50475 6.05343 4.16757C5.69014 3.80115 4.6817 2.792 4.45055 2.56517C4.13597 2.25626 3.78943 2.2559 3.47642 2.56374C3.40798 2.63108 3.32271 2.7296 3.226 2.85231C3.18605 2.903 3.14455 2.9573 3.10181 3.01469C3.00168 3.14913 2.89953 3.29397 2.80113 3.4389C2.7421 3.52583 2.69767 3.59313 2.66861 3.63791C2.35285 4.10007 2.23708 4.94661 2.42997 5.48148C2.44597 5.54133 2.48183 5.6598 2.53973 5.82845C2.63746 6.11311 2.76156 6.43124 2.91416 6.7744C3.35088 7.75648 3.92717 8.7389 4.65935 9.65471C4.88114 9.93212 5.11462 10.1997 5.36006 10.4563C5.66363 10.7736 5.98561 11.0727 6.32373 11.354C7.16818 12.0565 8.07405 12.6191 8.97955 13.054C9.2959 13.206 9.58915 13.331 9.8515 13.4307C10.0068 13.4897 10.1159 13.5268 10.1935 13.5513C10.7149 13.752 11.5745 13.686 12.066 13.4026C12.1114 13.3779 12.1922 13.3331 12.2963 13.274C12.4699 13.1753 12.6434 13.0734 12.8047 12.9739C12.8638 12.9374 12.9204 12.9019 12.9738 12.8674C13.1913 12.7274 13.3503 12.6109 13.4213 12.5392C13.7466 12.2109 13.7483 11.8658 13.4277 11.5427Z" fill="#3C3F47"/>
</svg>
