<svg width="29" height="29" viewBox="0 0 29 29" fill="none" xmlns="http://www.w3.org/2000/svg">
<g clip-path="url(#clip0)">
<path d="M15.447 21.1865C16.0951 20.5389 16.7431 19.8913 17.3996 19.2521C18.5443 18.1166 20.0677 18.1166 21.2124 19.2521C22.2729 20.3034 23.3502 21.38 24.4528 22.4818C25.6143 23.6509 25.6059 25.1732 24.4444 26.3507C23.8216 26.9731 22.2476 27.8646 21.4396 28.302C20.1266 29.0589 17.9888 29.2271 16.6169 28.6973C9.88356 26.6451 4.10132 20.7828 1.28173 14.4496C0.928234 13.6506 0.465317 12.574 0.263317 11.7245C-0.250099 10.3031 0.0360672 8.16682 0.902984 6.90522C1.38273 6.16508 2.06448 5.16421 2.69573 4.55023C3.8404 3.4232 5.36382 3.4232 6.50848 4.55023C6.97982 5.00441 8.9914 7.02297 9.72365 7.76311C10.902 8.95742 10.9104 10.4629 9.73206 11.6488C8.9914 12.389 8.25073 13.1291 7.51006 13.8777C7.90565 14.8701 8.42748 15.9046 8.99981 16.8046C9.8499 18.1419 10.6831 18.9829 11.9877 19.8661C12.9388 20.5053 14.0498 21.1024 15.1187 21.5314C15.1692 21.4809 15.2366 21.4136 15.4554 21.195L15.447 21.1865Z" fill="white"/>
<path d="M26.355 0.445795C26.9695 -0.159774 27.9542 -0.151363 28.5518 0.462616C29.1578 1.0766 29.1494 2.06064 28.535 2.6578L18.5696 12.4731C17.9552 13.0786 16.9705 13.0702 16.3729 12.4562C15.7669 11.8423 15.7753 10.8582 16.3897 10.261L26.355 0.445795Z" fill="white"/>
<path d="M14.6475 4.35673C14.6559 3.49885 15.3545 2.80917 16.213 2.81758C17.0715 2.82599 17.7616 3.52408 17.7532 4.38197L17.6859 11.2535L24.0321 10.8918C24.8906 10.8414 25.6228 11.4974 25.6733 12.3553C25.7238 13.2132 25.0673 13.9449 24.2088 13.9954L16.2046 14.4495C16.1709 14.4495 16.1372 14.4495 16.1036 14.4495C15.2451 14.4411 14.5549 13.743 14.5633 12.8852L14.6475 4.34832V4.35673Z" fill="white"/>
</g>
<defs>
<clipPath id="clip0">
<rect width="29" height="29" fill="white"/>
</clipPath>
</defs>
</svg>
