<svg width="19" height="14" viewBox="0 0 19 14" fill="none" xmlns="http://www.w3.org/2000/svg">
<path d="M1.85366 0.561035C0.825202 0.561035 0 1.42606 0 2.46538V12.0885C0 13.1278 0.825202 14.0001 1.85366 14.0001H17.1463C18.1748 14.0001 19 13.1278 19 12.0885V2.46538C19 1.42606 18.1748 0.561035 17.1463 0.561035H1.85366H1.85366ZM1.85366 1.48786H17.1463C17.2835 1.48786 17.413 1.52737 17.5301 1.58198L10.072 8.66356C9.72972 8.98856 9.28537 8.98858 8.94247 8.66356L1.46991 1.58198C1.58701 1.52737 1.71651 1.48786 1.85366 1.48786H1.85366ZM0.941311 2.35677L6.2199 7.36021L1.0282 12.5447C0.963184 12.4097 0.926829 12.2551 0.926829 12.0885V2.46538C0.926829 2.42775 0.93772 2.39303 0.941195 2.35677H0.941311ZM18.0587 2.35677C18.0624 2.39303 18.0731 2.42775 18.0731 2.46538V12.0885C18.0731 12.2527 18.035 12.4038 17.9717 12.5374L12.7945 7.35296L18.0586 2.35677H18.0587ZM12.1212 7.99741L17.1898 13.0732C17.1752 13.0732 17.161 13.0732 17.1463 13.0732H1.85366C1.84138 13.0732 1.82956 13.0732 1.81747 13.0732L6.89329 8.00463L8.30527 9.33695C8.97776 9.97442 10.0369 9.97533 10.7092 9.33695L12.1212 7.99741Z" fill="black"/>
</svg>
