<svg width="19" height="13" viewBox="0 0 19 13" fill="none" xmlns="http://www.w3.org/2000/svg">
<path d="M1.85366 0C0.825202 0 0 0.823657 0 1.81328V10.9762C0 11.9658 0.825202 12.7964 1.85366 12.7964H17.1463C18.1748 12.7964 19 11.9658 19 10.9762V1.81328C19 0.823657 18.1748 0 17.1463 0H1.85366H1.85366ZM1.85366 0.882509H17.1463C17.2835 0.882509 17.413 0.920124 17.5301 0.972126L10.072 7.71508C9.72972 8.02453 9.28537 8.02455 8.94247 7.71508L1.46991 0.972126C1.58701 0.920124 1.71651 0.882509 1.85366 0.882509H1.85366ZM0.941311 1.70986L6.2199 6.47405L1.0282 11.4106C0.963184 11.282 0.926829 11.1349 0.926829 10.9762V1.81328C0.926829 1.77745 0.93772 1.74439 0.941195 1.70986H0.941311ZM18.0587 1.70986C18.0624 1.74439 18.0731 1.77745 18.0731 1.81328V10.9762C18.0731 11.1326 18.035 11.2765 17.9717 11.4037L12.7945 6.46714L18.0586 1.70986H18.0587ZM12.1212 7.08077L17.1898 11.9139C17.1752 11.9139 17.161 11.9139 17.1463 11.9139H1.85366C1.84138 11.9139 1.82956 11.9139 1.81747 11.9139L6.89329 7.08765L8.30527 8.35626C8.97776 8.96325 10.0369 8.96411 10.7092 8.35626L12.1212 7.08077Z" fill="#007BC5"/>
</svg>
