<svg width="42" height="44" viewBox="0 0 42 44" fill="none" xmlns="http://www.w3.org/2000/svg">
<path d="M21 0.0463867C13.1707 0.0463867 6.83721 6.37988 6.83721 14.2092V18.6045H5.86047C2.63066 18.6045 0 21.2352 0 24.465V28.372C0 31.6018 2.63066 34.2324 5.86047 34.2324H10.7442C11.2556 34.2324 11.7209 33.7671 11.7209 33.2557V19.5813C11.7209 19.0699 11.2556 18.6046 10.7442 18.6045H8.7907V14.2092C8.7907 7.42833 14.2192 1.99988 21 1.99988C27.7808 1.99988 33.2093 7.42833 33.2093 14.2092V18.6045H31.2558C30.6966 18.6146 30.2911 19.1413 30.2791 19.5813V33.2557C30.2791 33.7671 30.7444 34.2324 31.2558 34.2324H33.1177C32.888 35.4676 32.2042 36.611 30.9658 37.5595C29.5351 38.6553 27.3245 39.4651 24.266 39.5893C23.8352 38.1936 22.5299 37.1627 21 37.1627C19.1235 37.1627 17.5814 38.7048 17.5814 40.5813C17.5814 42.4577 19.1235 43.9999 21 43.9999C22.5461 43.9999 23.8646 42.961 24.2812 41.5428C27.6765 41.4141 30.3027 40.5089 32.141 39.1009C33.8339 37.8043 34.8264 36.0717 35.0865 34.2324H36.1395C39.3693 34.2324 42 31.6018 42 28.372V24.465C42 21.2352 39.3693 18.6045 36.1395 18.6045H35.1628V14.2092C35.1628 6.37988 28.8293 0.0463867 21 0.0463867H21ZM5.86047 20.558H9.76744V32.2789H5.86047C3.67911 32.2789 1.95349 30.5533 1.95349 28.372V24.465C1.95349 22.2836 3.67911 20.558 5.86047 20.558ZM32.2326 20.558H36.1395C38.3209 20.558 40.0465 22.2836 40.0465 24.465V28.372C40.0465 30.5533 38.3209 32.2789 36.1395 32.2789H32.2326V20.558ZM21 39.1162C21.8207 39.1162 22.4651 39.7606 22.4651 40.5813C22.4651 41.402 21.8207 42.0464 21 42.0464C20.1793 42.0464 19.5349 41.402 19.5349 40.5813C19.5349 39.7606 20.1793 39.1162 21 39.1162Z" fill="#3C3F47"/>
</svg>
