<svg width="73" height="60" viewBox="0 0 73 60" fill="none" xmlns="http://www.w3.org/2000/svg">
<path d="M4.40359 13.6762L10.5454 17.0527L11.3765 15.6821L5.23471 12.3055L4.40359 13.6762Z" fill="white"/>
<path d="M7.09213 29.3096H0V30.8923H7.09213V29.3096Z" fill="white"/>
<path d="M4.46193 46.6555L5.29321 48.0261L11.435 44.649L10.6038 43.2784L4.46193 46.6555Z" fill="white"/>
<path d="M60.6565 44.6244L66.7983 48.001L67.6295 46.6303L61.4876 43.2538L60.6565 44.6244Z" fill="white"/>
<path d="M72.0297 29.3096H64.9375V30.8923H72.0297V29.3096Z" fill="white"/>
<path d="M67.5598 13.6759L66.7285 12.3052L60.5868 15.6824L61.418 17.0531L67.5598 13.6759Z" fill="white"/>
<path d="M37.4556 0.292577C25.5984 -0.446039 15.625 8.52287 15.625 19.6021C15.625 21.818 15.9574 23.9283 16.844 26.0386L18.617 29.4151C18.8386 29.8372 19.1711 30.2593 19.3927 30.6813L19.5035 30.7869C22.2739 35.5351 24.3794 40.8109 25.7092 46.4033H21.0549V47.9861H26.0416V48.0916C26.1524 48.8302 26.2632 49.5688 26.3741 50.3074H23.4929V51.8902H26.5957C26.7065 52.4177 26.7065 52.8398 26.8173 53.3674V53.5784C27.3714 54.9501 28.7012 55.8998 30.1418 56.1108C30.9175 58.3267 33.3554 59.9094 36.015 59.9094C38.6745 59.9094 41.0016 58.3267 41.8882 56.1108C43.5504 55.8998 44.991 54.7391 45.4343 53.0508C45.4343 52.7343 45.5451 52.3122 45.5451 51.9957H48.6479V50.4129H45.7667C45.7667 50.3074 45.7667 50.0964 45.8775 49.9909C45.9883 49.3578 46.0991 48.7247 46.21 48.0916H51.0858V46.5088H46.5424C47.8722 40.5999 50.1993 34.902 53.3021 29.9427C53.4129 29.7317 53.6346 29.4151 53.8562 29.0986C55.7401 25.9331 56.6266 22.24 56.5158 18.5469C55.8509 8.83942 47.6506 0.925676 37.4556 0.292577ZM36.015 58.4322C34.3527 58.4322 32.8013 57.5881 32.0256 56.2163H40.0043C39.2286 57.5881 37.6772 58.4322 36.015 58.4322ZM43.6612 52.8398C43.4396 53.895 42.4422 54.6336 41.3341 54.6336H30.6959C29.6985 54.6336 28.812 54.106 28.4795 53.2619C28.4795 52.8398 28.3687 52.5233 28.3687 52.1012H43.772C43.772 52.3122 43.6612 52.6288 43.6612 52.8398ZM44.1045 49.7798C44.1045 49.9909 43.9937 50.2019 43.9937 50.4129H28.1471C28.0363 49.6743 27.9255 48.9357 27.7038 48.0916H44.4369C44.3261 48.7247 44.2153 49.2523 44.1045 49.7798ZM33.4662 46.6143C34.1311 40.8109 34.1311 36.1682 33.9095 33.0027C34.5744 33.1082 35.3501 33.1082 36.1258 33.1082C36.9015 33.1082 37.5664 33.1082 38.3421 33.0027C38.1205 36.1682 38.0096 40.8109 38.7853 46.6143H33.4662ZM52.3048 28.36L52.194 28.4655C52.0832 28.6765 51.8615 28.9931 51.7507 29.2041C48.5371 34.3744 46.21 40.3889 44.7694 46.6143H40.3368C39.5611 40.5999 39.6719 35.8517 40.0043 32.7917C41.7774 32.3696 43.1071 31.7365 43.9937 30.9979C44.2153 30.7869 44.3261 30.5758 44.4369 30.3648C44.7694 29.9427 44.8802 29.5207 44.8802 29.0986C44.8802 28.9931 44.8802 28.9931 44.8802 28.8876C44.8802 28.1489 44.5477 27.4103 43.9937 26.7772C42.8855 25.7221 40.78 25.7221 39.6719 26.7772C39.1178 27.3048 38.7853 28.0434 38.7853 28.782C38.7853 28.9931 38.5637 29.9427 38.4529 31.3144C37.788 31.42 37.0123 31.42 36.1258 31.42C35.2393 31.42 34.4636 31.3144 33.7987 31.3144C33.6879 29.8372 33.4662 28.9931 33.4662 28.782C33.4662 28.0434 33.1338 27.3048 32.5797 26.7772C31.4716 25.7221 29.3661 25.7221 28.2579 26.7772C27.7038 27.3048 27.3714 28.0434 27.3714 28.8876C27.3714 28.9931 27.3714 28.9931 27.3714 29.0986C27.3714 29.5207 27.4822 30.0482 27.8147 30.3648C27.9255 30.5758 28.1471 30.7869 28.2579 30.9979C29.1444 31.842 30.4742 32.4751 32.2473 32.7917C32.4689 35.8517 32.5797 40.7054 31.9148 46.6143H27.4822C26.1524 40.7054 23.9361 35.113 20.9441 30.0482L20.8333 29.9427C20.6117 29.5207 20.39 29.0986 20.1684 28.782L18.5062 25.511C17.8413 23.6117 17.5089 21.6069 17.5089 19.6021C17.5089 9.367 26.5957 1.13671 37.4556 1.87533C46.8748 2.50842 54.2995 9.68355 54.8535 18.6525C54.8535 22.1345 53.967 25.511 52.3048 28.36ZM42.8855 29.6262C42.4422 30.1538 41.4449 30.6813 40.1151 30.9979C40.2259 29.7317 40.4476 28.9931 40.4476 28.9931V28.8876C40.4476 28.571 40.5584 28.2545 40.8908 27.9379C41.4449 27.4103 42.3314 27.4103 42.8855 27.9379C43.1071 28.1489 43.3288 28.4655 43.3288 28.8876C43.1071 29.2041 42.9963 29.4151 42.8855 29.6262ZM29.1444 29.6262C28.9228 29.4151 28.812 29.0986 28.812 28.782C28.812 28.4655 28.9228 28.1489 29.2553 27.8324C29.8093 27.3048 30.6959 27.3048 31.2499 27.8324C31.4716 28.0434 31.6932 28.4655 31.6932 28.782V28.8876C31.6932 28.8876 31.804 29.6262 32.0256 30.8924C30.585 30.6813 29.6985 30.1538 29.1444 29.6262Z" fill="white"/>
</svg>
