<svg width="64" height="61" viewBox="0 0 64 61" fill="none" xmlns="http://www.w3.org/2000/svg">
<path d="M27.1248 60.8722H17.4414L16.5511 54.5255C14.8819 53.9326 13.1854 52.8999 11.2679 51.3105L5.3387 53.5907L0.502002 45.6146L5.53892 41.8689C5.35738 40.9125 5.26462 39.9377 5.26462 38.9666C5.26462 37.9988 5.35672 37.0265 5.53825 36.07L0.5 32.341L5.34404 24.3966L11.2773 26.7581C12.7122 25.6136 14.4475 24.7099 16.5591 24.0077L17.4508 18.2939H27.1162L28.0078 24.0058C29.8138 24.5904 31.6726 25.3289 33.2923 26.605L39.2276 24.3229L44.065 32.3009L39.028 36.0491C39.2096 37.0049 39.3023 37.9816 39.3023 38.9565C39.3023 39.944 39.2102 40.9271 39.028 41.8842L44.063 45.6514L39.2323 53.6625L33.301 51.4624C31.5784 52.8751 29.8038 53.9033 28.0152 54.5261L27.1248 60.8722ZM18.6101 59.6012H25.9562L26.8018 53.5767L27.1989 53.4521C29.055 52.8694 30.913 51.7941 32.7217 50.2569L33.0274 49.9976L38.6469 52.082L42.331 45.9723L37.5584 42.4015L37.6418 42.0164C37.8581 41.0218 37.9675 39.9923 37.9675 38.9571C37.9675 37.9352 37.8581 36.9121 37.6418 35.9175L37.5584 35.5311L42.329 31.9806L38.6516 25.9161L33.0314 28.0774L32.7217 27.8143C31.0966 26.4334 29.107 25.6879 27.1989 25.0887L26.8085 24.966L25.9649 19.5649H18.6014L17.7585 24.9654L17.368 25.088C15.0928 25.803 13.2862 26.7454 11.8452 27.97L11.5316 28.2363L5.91066 25.9987L2.23993 32.0181L7.00922 35.5483L6.92512 35.9353C6.70888 36.9318 6.59943 37.9511 6.59943 38.9654C6.59943 39.9828 6.70888 41.004 6.92512 42.0005L7.00855 42.3869L2.23793 45.9349L5.91467 51.9981L11.5356 49.8368L11.8452 50.0999C13.9042 51.8494 15.6588 52.9145 17.368 53.4515L17.7651 53.5761L18.6101 59.6012ZM22.2835 47.5357C17.3153 47.5357 13.2735 43.6871 13.2735 38.9565C13.2735 34.2258 17.3153 30.3773 22.2835 30.3773C27.2517 30.3773 31.2935 34.2258 31.2935 38.9565C31.2935 43.6871 27.2517 47.5357 22.2835 47.5357ZM22.2835 31.6483C18.0515 31.6483 14.6083 34.9268 14.6083 38.9565C14.6083 42.9862 18.0515 46.2647 22.2835 46.2647C26.5155 46.2647 29.9587 42.9862 29.9587 38.9565C29.9587 34.9268 26.5155 31.6483 22.2835 31.6483Z" fill="white"/>
<path d="M51.6307 30.3683H44.5188L43.8915 25.5659C42.6808 25.0778 41.6089 24.15 40.6519 23.3213C40.5511 23.2343 40.4523 23.1485 40.3549 23.0646L36.1829 24.6425L32.627 18.8805L36.1843 16.2819C36.0708 15.6547 36.0134 15.0179 36.0134 14.3837C36.0134 13.7438 36.0695 13.1222 36.1836 12.495L32.6237 9.91997L36.1936 4.20113L40.3789 5.90236C41.398 5.13722 42.548 4.65488 43.9102 4.21575L44.5402 0.5H51.61L52.2394 4.21067C52.3368 4.23926 52.4329 4.26786 52.5284 4.29582C53.683 4.63645 54.7802 4.95992 55.7766 5.68184L59.9673 4.09755L63.5226 9.8615L59.9653 12.4639C60.0788 13.0917 60.1368 13.731 60.1368 14.3697C60.1368 15.0198 60.0774 15.6852 59.9646 16.3156L63.5172 18.9542L59.9813 24.7772L55.802 23.355C54.7235 24.239 53.5549 25.0848 52.2588 25.571L51.6307 30.3683ZM45.6981 29.0974H50.4521L51.0361 24.6254L51.4398 24.5008C52.7913 24.0833 54.0541 23.1262 55.2174 22.1539L55.5124 21.9073L59.3813 23.2241L61.7786 19.2757L58.493 16.8354L58.5784 16.4472C58.7239 15.7888 58.8007 15.0707 58.8007 14.3697C58.8007 13.684 58.7259 12.9977 58.5784 12.3298L58.4923 11.9389L61.7733 9.53867L59.3947 5.68248L55.5237 7.14603L55.2167 6.88928C54.3504 6.16482 53.3226 5.86232 52.1319 5.51153C51.9044 5.44416 51.6728 5.37617 51.4385 5.30372L51.0507 5.18425L50.4734 1.77099H45.6768L45.0975 5.18298L44.7097 5.30245C43.18 5.77462 41.9527 6.26396 40.9315 7.11679L40.6158 7.38116L36.7436 5.80703L34.3796 9.59396L37.6572 11.9644L37.5705 12.3584C37.421 13.0358 37.3482 13.698 37.3482 14.3837C37.3482 15.0643 37.423 15.7481 37.5705 16.4167L37.6566 16.8081L34.3756 19.2052L36.7536 23.0589L40.6245 21.5947L40.9315 21.8508C41.1311 22.0179 41.338 22.1965 41.5502 22.3802C42.5126 23.2146 43.6038 24.1595 44.7097 24.5008L45.1135 24.6254L45.6981 29.0974ZM48.0748 20.447C44.5015 20.447 41.5943 17.7207 41.5943 14.3697C41.5943 11.0187 44.5015 8.29246 48.0748 8.29246C51.6481 8.29246 54.5553 11.0187 54.5553 14.3697C54.556 17.7207 51.6487 20.447 48.0748 20.447ZM48.0748 9.56282C45.2376 9.56282 42.9291 11.7191 42.9291 14.3691C42.9291 17.0191 45.2376 19.1753 48.0748 19.1753C50.9119 19.1753 53.2205 17.0191 53.2205 14.3691C53.2205 11.7191 50.9126 9.56282 48.0748 9.56282Z" fill="white"/>
</svg>
