<svg width="63" height="60" viewBox="0 0 63 60" fill="none" xmlns="http://www.w3.org/2000/svg">
<path d="M62.75 32.0618C62.75 31.1638 62.467 30.3555 61.9955 29.637L55.6761 19.6683C54.733 18.2313 53.1295 17.4231 51.4318 17.4231H42.0943V7.63392C42.0943 7.09507 41.717 6.73584 41.1511 6.73584H35.3034C34.7375 6.73584 34.3602 7.09507 34.3602 7.63392C34.3602 8.17278 34.7375 8.53201 35.3034 8.53201H40.208V31.8822H2.38636V8.53201H7.29091C7.85682 8.53201 8.23409 8.17278 8.23409 7.63392C8.23409 7.09507 7.85682 6.73584 7.29091 6.73584H1.44318C0.877273 6.73584 0.5 7.09507 0.5 7.63392C0.5 38.9771 0.5 45.7127 0.5 50.9216C0.5 51.4605 0.877273 51.8197 1.44318 51.8197H11.3466C10.9693 55.9509 14.2705 59.3636 18.5148 59.3636C22.7591 59.3636 26.1545 55.8611 25.683 51.8197H41.717C41.4341 55.8611 44.8295 59.3636 49.0739 59.3636C53.0352 59.3636 56.3364 56.3102 56.3364 52.4484C56.3364 52.179 56.3364 51.9993 56.3364 51.7299H61.8068C62.3727 51.7299 62.75 51.3707 62.75 50.8318C62.75 33.3192 62.75 49.4847 62.75 32.0618ZM51.4318 19.2192C52.4693 19.2192 53.5068 19.7581 54.0727 20.6562L60.392 30.6249C60.675 31.074 60.8636 31.6128 60.8636 32.1517V40.414H42.0943V19.2192H51.4318ZM40.208 33.6784V40.3242H2.38636V33.6784H40.208ZM18.6091 57.5675C15.6852 57.5675 13.233 55.3223 13.233 52.4484C13.233 49.6643 15.5909 47.3293 18.6091 47.3293C21.533 47.3293 23.9852 49.5745 23.9852 52.4484C23.8909 55.3223 21.533 57.5675 18.6091 57.5675ZM49.0739 57.5675C46.15 57.5675 43.6977 55.3223 43.6977 52.4484C43.6977 49.6643 46.0557 47.3293 49.0739 47.3293C51.9977 47.3293 54.45 49.5745 54.45 52.4484C54.45 55.3223 51.9977 57.5675 49.0739 57.5675ZM60.8636 50.0236H55.8648C54.8273 47.4191 52.1864 45.6229 49.0739 45.6229C45.9614 45.6229 43.3205 47.4191 42.283 50.0236H25.3057C24.2682 47.4191 21.6273 45.6229 18.5148 45.6229C15.4023 45.6229 12.7614 47.4191 11.7239 50.0236H2.38636V42.2102H60.8636V50.0236Z" fill="white"/>
<path d="M46.5272 32.1515H55.9591C56.525 32.1515 56.9023 31.7923 56.9023 31.2534C56.9023 30.984 56.8079 30.8044 56.6193 30.6247L51.9977 23.5298C51.5261 22.8114 50.6772 22.3623 49.8284 22.3623H46.4329C45.867 22.3623 45.4897 22.7215 45.4897 23.2604V31.2534C45.5841 31.7923 45.9613 32.1515 46.5272 32.1515ZM47.4704 24.2483H49.9227C50.1113 24.2483 50.3943 24.3381 50.4886 24.5177L54.2613 30.3553H47.4704V24.2483Z" fill="white"/>
<path d="M10.8749 8.89105C10.2147 9.87894 9.7431 10.9566 9.46014 12.0343L6.6306 12.3936C6.15901 12.4834 5.78174 12.8426 5.78174 13.2917V16.435C5.78174 16.884 6.15901 17.2432 6.6306 17.333L9.46014 17.6923C9.7431 18.8598 10.2147 19.8477 10.8749 20.8356L9.17719 22.991C8.89424 23.3502 8.89424 23.8891 9.27151 24.1585L11.6295 26.4037C12.0067 26.7629 12.4783 26.7629 12.8556 26.4935L15.1192 24.877C16.1567 25.5056 17.2885 25.9547 18.4204 26.2241L18.7976 28.9183C18.892 29.3674 19.2692 29.7266 19.7408 29.7266H23.042C23.5135 29.7266 23.8908 29.3674 23.9851 28.9183L24.3624 26.2241C25.5885 25.9547 26.626 25.5056 27.6635 24.877L29.9272 26.4935C30.1158 26.5833 30.3044 26.6731 30.4931 26.6731C30.776 26.6731 31.059 26.5833 31.2476 26.4037L33.5113 24.2483C33.8885 23.8891 33.8885 23.44 33.6056 23.0808L31.9079 20.9254C32.5681 19.9375 33.0397 18.8598 33.3226 17.7821L36.1522 17.4229C36.6238 17.333 37.001 16.9738 37.001 16.5248V13.3815C37.001 12.9324 36.6238 12.5732 36.1522 12.4834L33.3226 12.1242C33.0397 10.9566 32.5681 9.96875 31.9079 8.98085L33.5113 6.73564C33.7942 6.37641 33.7942 5.83755 33.4169 5.47832L31.1533 3.32292C30.776 2.96368 30.3044 2.96368 29.9272 3.23311L27.6635 4.84966C26.626 4.221 25.4942 3.77196 24.3624 3.50253L23.9851 0.808277C23.8908 0.359234 23.5135 0 23.042 0H19.7408C19.2692 0 18.892 0.359234 18.7976 0.808277L18.4204 3.50253C17.1942 3.77196 16.1567 4.221 15.1192 4.84966L12.7613 3.23311C12.384 2.96368 11.8181 2.96368 11.5351 3.32292L9.17719 5.56813C8.79992 5.83755 8.79992 6.37641 9.08287 6.73564L10.8749 8.89105ZM12.7613 8.26239L11.1579 6.19679L12.2897 5.11909L14.3647 6.64583C14.6476 6.91526 15.2135 6.91526 15.4965 6.64583C16.7226 5.92736 17.9488 5.47832 19.3635 5.20889C19.7408 5.11909 20.0238 4.84966 20.1181 4.40062L20.4954 1.88598H22.0988L22.476 4.40062C22.5704 4.75985 22.8533 5.11909 23.2306 5.20889C24.6454 5.47832 25.9658 5.92736 27.0976 6.73564C27.4749 6.91526 27.8522 6.91526 28.2294 6.73564L30.3988 5.20889L31.5306 6.2866L29.9272 8.35219C29.6442 8.62162 29.6442 9.07066 29.9272 9.4299C30.6817 10.5076 31.2476 11.7649 31.5306 13.112C31.6249 13.4713 31.9079 13.7407 32.3794 13.8305L35.0204 14.1897V15.7165L32.3794 16.0757C32.0022 16.1655 31.6249 16.435 31.5306 16.7942C31.2476 18.1413 30.6817 19.3986 29.9272 20.4763C29.7385 20.8356 29.7385 21.1948 29.9272 21.554L31.5306 23.6196L30.3988 24.6973L28.2294 23.1706C27.9465 22.9012 27.4749 22.9012 27.0976 23.1706C25.9658 23.8891 24.6454 24.4279 23.2306 24.6973C22.8533 24.7872 22.5704 25.0566 22.476 25.5056L22.0988 28.0203H20.4954L20.1181 25.5056C20.0238 25.1464 19.7408 24.7872 19.3635 24.6973C17.9488 24.4279 16.6283 23.8891 15.4965 23.1706C15.1192 22.991 14.742 22.991 14.3647 23.1706L12.1954 24.6973L11.0636 23.6196L12.667 21.6439C12.9499 21.3744 12.9499 20.8356 12.667 20.5662C11.9124 19.4885 11.3465 18.2311 11.0636 16.884C10.9692 16.5248 10.6863 16.2553 10.2147 16.1655L7.57378 15.8063V14.2796L10.2147 13.9203C10.592 13.8305 10.9692 13.5611 11.0636 13.2019C11.3465 11.8547 11.9124 10.5974 12.667 9.5197C12.9499 8.98085 12.9499 8.62162 12.7613 8.26239Z" fill="white"/>
<path d="M21.3443 22.0932C25.4943 22.0932 28.8897 18.86 28.8897 14.9084C28.8897 10.9568 25.4943 7.72363 21.3443 7.72363C17.1943 7.72363 13.7988 10.9568 13.7988 14.9084C13.7988 18.86 17.1 22.0932 21.3443 22.0932ZM21.3443 9.51983C24.4568 9.51983 27.0034 11.9447 27.0034 14.9084C27.0034 17.8721 24.4568 20.297 21.3443 20.297C18.2318 20.297 15.6852 17.8721 15.6852 14.9084C15.6852 11.9447 18.2318 9.51983 21.3443 9.51983Z" fill="white"/>
</svg>
