<svg width="79" height="79" viewBox="0 0 79 79" fill="none" xmlns="http://www.w3.org/2000/svg">
<path d="M78.7174 48.7724L43.5032 13.5641C43.3243 13.3852 43.0823 13.2838 42.8293 13.2817L25.6808 13.1388C24.515 11.4871 23.1341 9.84691 21.5708 8.28454C14.1084 0.820878 5.34595 -2.11016 1.62264 1.6109C0.561294 2.67032 0.000160792 4.19925 5.49026e-08 6.03246C-0.000482156 10.4984 3.17552 16.4448 8.28712 21.5498C9.80014 23.0677 11.4376 24.4499 13.155 25.6634L13.2984 42.7991C13.3005 43.0521 13.4021 43.2942 13.581 43.4731L48.7954 78.6805C48.9838 78.8687 49.2305 78.9629 49.4773 78.9629C49.724 78.9629 49.9707 78.8688 50.159 78.6806L78.7173 50.1368C78.8983 49.9558 79 49.7105 79 49.4548C79 49.1987 78.8984 48.9534 78.7174 48.7724ZM9.65178 20.1865C4.95986 15.5008 1.92836 9.94512 1.92901 6.03278C1.92917 4.70412 2.28456 3.67557 2.98585 2.97572C4.2785 1.68371 6.79468 1.57972 9.88918 2.69057C13.2698 3.90398 16.934 6.37499 20.2071 9.64856C21.3266 10.7674 22.3502 11.9357 23.2622 13.1187L14.0301 13.0417C13.7731 13.0459 13.523 13.1414 13.3402 13.3241C13.1573 13.507 13.0555 13.7555 13.0578 14.0142L13.1351 23.2532C11.9183 22.3164 10.7512 21.2895 9.65178 20.1865ZM49.4774 76.6348L15.224 42.388L14.9947 14.9788L24.6485 15.0591C25.7554 16.74 26.6152 18.4129 27.1771 19.9835C27.0966 19.9807 27.0162 19.9775 26.9352 19.9775C25.0816 19.9775 23.3382 20.6995 22.0256 22.0113C19.3265 24.7151 19.3265 29.1156 22.028 31.823C23.3397 33.1282 25.0824 33.8469 26.9352 33.8469C28.7885 33.8469 30.5302 33.1279 31.8414 31.8206C34.5403 29.1156 34.5403 24.7152 31.841 22.0112C31.1206 21.2898 30.2687 20.7478 29.3398 20.4051C28.8545 18.7061 28.0412 16.9012 26.9468 15.0783L42.4185 15.2072L76.6716 49.4543L49.4774 76.6348ZM27.9329 23.8058C27.9319 25.1325 27.5756 26.1598 26.8738 26.8588C26.4964 27.2348 26.4954 27.8454 26.8712 28.2227C27.0596 28.4119 27.307 28.5064 27.5543 28.5064C27.8006 28.5064 28.0468 28.4127 28.2351 28.2251C29.2977 27.1663 29.8601 25.6385 29.8616 23.8071C29.8617 23.4842 29.8434 23.1526 29.8108 22.815C30.0456 22.9806 30.2686 23.1664 30.4757 23.3739C32.4248 25.3265 32.4248 28.5045 30.4774 30.4564C29.5321 31.399 28.274 31.918 26.9349 31.918C25.5954 31.918 24.3359 31.3987 23.3906 30.4582C21.4414 28.5046 21.4412 25.3265 23.3897 23.3749C24.3372 22.428 25.5962 21.9064 26.9349 21.9064C27.2065 21.9064 27.4745 21.929 27.7374 21.971C27.8657 22.6131 27.9334 23.2279 27.9329 23.8058Z" fill="white"/>
<path d="M28.0836 49.6141C28.0836 49.87 28.1852 50.1154 28.3662 50.2962L49.8678 71.7878C50.056 71.9761 50.3028 72.0702 50.5495 72.0702C50.7961 72.0702 51.0428 71.9761 51.231 71.7881L71.8306 51.2084C72.0118 51.0274 72.1135 50.7822 72.1135 50.5263C72.1135 50.2702 72.0118 50.0249 71.8308 49.8441L50.3295 28.3524C49.9532 27.9761 49.3427 27.9758 48.9663 28.3523L28.3664 48.9319C28.1854 49.1129 28.0836 49.3582 28.0836 49.6141ZM49.6476 30.398L69.7848 50.5259L50.5498 69.7424L30.4124 49.6144L49.6476 30.398Z" fill="white"/>
<path d="M51.4775 36.5296C51.1011 36.1528 50.4906 36.1525 50.1137 36.529L36.5463 50.0846C36.1696 50.461 36.1692 51.0716 36.5457 51.4484C36.7341 51.637 36.981 51.7311 37.228 51.7311C37.4747 51.7311 37.7213 51.6371 37.9097 51.4489L51.4772 37.8935C51.8538 37.517 51.8541 36.9065 51.4775 36.5296Z" fill="white"/>
<path d="M57.5621 42.6106C57.1855 42.2335 56.5747 42.234 56.1983 42.6101L42.6361 56.1657C42.2593 56.5423 42.2592 57.1529 42.6356 57.5295C42.824 57.7181 43.0709 57.8123 43.3178 57.8123C43.5645 57.8123 43.8112 57.7181 43.9995 57.53L57.5617 43.9744C57.9383 43.5978 57.9384 42.9873 57.5621 42.6106Z" fill="white"/>
<path d="M63.6515 48.6914C63.2753 48.3145 62.6643 48.3145 62.2879 48.6911L48.7252 62.2477C48.3484 62.6241 48.3483 63.2349 48.7249 63.6114C48.9131 63.7999 49.16 63.8941 49.4069 63.8941C49.6536 63.8941 49.9003 63.7999 50.0886 63.6117L63.6512 50.0551C64.028 49.6787 64.0282 49.068 63.6515 48.6914Z" fill="white"/>
</svg>
