<svg width="18" height="18" viewBox="0 0 18 18" fill="none" xmlns="http://www.w3.org/2000/svg">
<path d="M9 0C4.03451 0 0 4.03451 0 9C0 13.9655 4.03451 18 9 18C13.9655 18 18 13.9655 18 9C18 4.03451 13.9655 0 9 0ZM8.55804 0.897321C8.5856 1.99146 8.57143 3.15939 8.57143 4.27902H5.8192C6.42486 2.451 7.38605 1.14754 8.55804 0.897321ZM9.42857 0.910714C10.5818 1.18235 11.5287 2.47256 12.1272 4.27902H9.42857V0.910714ZM6.65625 1.19866C5.97675 1.94647 5.40103 3.00736 4.98884 4.27902H2.36384C3.40023 2.8244 4.90366 1.72342 6.65625 1.19866ZM11.3438 1.19866C13.0963 1.72342 14.5998 2.8244 15.6362 4.27902H13.0112C12.599 3.00736 12.0232 1.94647 11.3438 1.19866ZM1.82812 5.13616H4.74777C4.48556 6.18478 4.32309 7.34144 4.29241 8.56472H0.870536C0.935098 7.32787 1.2733 6.1657 1.82812 5.13616ZM5.57143 5.13616H8.57143V8.56472H5.12946C5.15983 7.34718 5.30994 6.17829 5.57143 5.13616ZM9.42857 5.13616H12.375C12.6365 6.17829 12.7866 7.34718 12.817 8.56472H9.42857V5.13616ZM13.2522 5.13616H16.1719C16.7267 6.1657 17.0649 7.32787 17.1295 8.56472H13.7076C13.6769 7.34144 13.5144 6.18478 13.2522 5.13616ZM0.870536 9.42186H4.29241C4.3217 10.6443 4.48047 11.8024 4.74107 12.8504H1.82143C1.26965 11.8222 0.933958 10.6561 0.870536 9.42186ZM5.12946 9.42186H8.57143V12.8504H5.57143C5.31083 11.8076 5.1589 10.6395 5.12946 9.42186ZM9.42857 9.42186H12.817C12.7875 10.6395 12.6356 11.8076 12.375 12.8504H9.42857V9.42186ZM13.7076 9.42186H17.1295C17.066 10.6561 16.7304 11.8222 16.1786 12.8504H13.2589C13.5195 11.8024 13.6783 10.6443 13.7076 9.42186ZM2.35045 13.7076H4.98214C5.39352 14.9827 5.96932 16.0446 6.64955 16.7946C4.89368 16.2673 3.3859 15.1679 2.35045 13.7076ZM5.8192 13.7076H8.57143V17.096C7.39233 16.8523 6.42695 15.5455 5.8192 13.7076ZM9.42857 13.7076H12.1272C11.5288 15.5172 10.5831 16.8107 9.42857 17.0826V13.7076ZM13.0179 13.7076H15.6496C14.6141 15.1679 13.1063 16.2673 11.3504 16.7946C12.0307 16.0446 12.6065 14.9827 13.0179 13.7076Z" fill="#3C3F47"/>
</svg>
